<?xml version="1.0" encoding="utf-8"?>
<!-- Generator: Adobe Illustrator 20.1.0, SVG Export Plug-In . SVG Version: 6.00 Build 0)  -->
<svg version="1.1" id="Cultivate" xmlns="http://www.w3.org/2000/svg" xmlns:xlink="http://www.w3.org/1999/xlink" x="0px" y="0px"
	 viewBox="0 0 240 60" style="enable-background:new 0 0 240 60;" xml:space="preserve">
<style type="text/css">
	.st0{fill:#222222;}
	.st1{fill:#3ec7bb;}
</style>
<path class="st0" d="M103.6,18.3c-0.8-0.1-1.5-0.2-2.1-0.2s-1.3,0.1-2,0.2v13.9c-0.7,0.7-1.5,1.3-2.4,1.8c-0.9,0.4-1.8,0.7-2.7,0.7
	c-0.9,0-1.5-0.3-1.8-0.9c-0.3-0.6-0.5-1.6-0.5-3V20.7c0-1.7-0.7-2.6-2.2-2.6c-1.1,0-1.9,0.3-2.6,0.9c0.5,0.8,0.7,2,0.7,3.6v9.3
	c0,2,0.4,3.6,1.3,4.8s2.2,1.8,4,1.8c2.4,0,4.6-1,6.7-3c0.6,1.6,1.7,2.6,3.4,2.9c0.7-0.4,1.3-1.1,1.6-2.1c-0.7-0.7-1.1-1.9-1.1-3.8
	V18.3H103.6z M81.3,26.1c1.4,0,2.1-0.8,2.1-2.3c0-0.7-0.2-1.5-0.5-2.2s-0.8-1.4-1.4-1.9c-0.6-0.6-1.4-1-2.3-1.4
	c-0.9-0.3-1.9-0.5-3.1-0.5c-1.1,0-2.2,0.2-3.2,0.7s-1.9,1.1-2.6,2c-0.8,0.9-1.4,1.9-1.8,3.2C68,25,67.8,26.4,67.8,28s0.2,3,0.5,4.3
	s0.8,2.4,1.5,3.4c0.7,0.9,1.5,1.7,2.6,2.2c1,0.5,2.2,0.8,3.7,0.8c2.8,0,5.2-1,7.2-3c-0.1-0.5-0.3-0.9-0.7-1.4
	c-0.3-0.5-0.7-0.8-1.1-1c-1.7,1.3-3.3,2-4.8,2c-3,0-4.5-2.3-4.5-6.9c0-2.4,0.3-4.3,1-5.5c0.7-1.2,1.7-1.8,2.9-1.8
	c2.3,0,3.5,1.5,3.5,4.5V26C80.1,26.1,80.6,26.1,81.3,26.1z M115.5,35c-1,0-1.6-0.6-1.6-1.8V11.3c0-0.9-0.2-1.6-0.5-2
	s-0.9-0.6-1.7-0.6h-1.6l-0.3,0.2v25.2c0,2.7,1.3,4.1,4,4.1c1.2,0,2.3-0.1,3.4-0.3c0.1-0.3,0.1-0.7,0.1-1.2s-0.1-1.1-0.4-1.8h-1.4V35
	z M25,8.5c-11.6,0-21,9.4-21,21s9.4,21,21,21s21-9.4,21-21S36.6,8.5,25,8.5z M25,33.5c-2.2,0-4-1.8-4-4s1.8-4,4-4s4,1.8,4,4
	S27.2,33.5,25,33.5z M137.5,15.1c1.1,0,1.7-0.2,2-0.4c0.3-0.3,0.5-0.9,0.5-1.8c0-1-0.2-1.6-0.5-1.9c-0.3-0.2-1-0.4-2-0.4
	c-0.9,0-1.6,0.1-2,0.3s-0.6,0.8-0.6,1.9c0,0.7,0.1,1.3,0.4,1.8C135.7,15,136.5,15.1,137.5,15.1z M178.4,24.6c0-2.2-0.6-3.9-1.7-5
	c-1.1-1.1-2.8-1.7-4.8-1.7c-2.8,0-5.6,0.6-8.3,1.8c0,1.3,0.4,2.3,1.2,3c2.7-1,4.8-1.6,6.3-1.6c2.2,0,3.3,1.2,3.3,3.6v1.6
	c-0.6-0.1-1.2-0.2-1.9-0.2c-0.6,0-1.3-0.1-2-0.1c-2.3,0-4.2,0.6-5.6,1.7c-1.4,1.1-2.1,2.8-2.1,5c0,0.8,0.1,1.5,0.4,2.2
	c0.3,0.7,0.6,1.3,1.2,1.9c0.5,0.5,1.2,1,1.9,1.3c0.8,0.3,1.6,0.5,2.7,0.5c2,0,3.9-0.9,5.8-2.7c0.6,1.4,1.6,2.2,3.2,2.5
	c0.7-0.5,1.2-1.2,1.6-2.1c-0.7-0.6-1.1-1.8-1.1-3.4L178.4,24.6L178.4,24.6z M174.3,32.9c-1.4,1.6-3,2.4-4.7,2.4
	c-0.8,0-1.5-0.3-2-0.8s-0.7-1.3-0.7-2.3s0.3-1.8,1-2.4s1.6-0.9,2.9-0.9c0.6,0,1.3,0,1.8,0c0.6,0,1.1,0.1,1.7,0.1V32.9z M125.8,18.4
	v-5.9l-0.3-0.3h-1.6c-0.8,0-1.4,0.2-1.7,0.6s-0.5,1.1-0.5,2v3.5l-3-0.1c-0.1,0.5-0.2,1-0.2,1.6c0,0.5,0.1,1,0.2,1.5h3v12.8
	c0,2.7,1.4,4.1,4.2,4.1c1.4,0,2.9-0.1,4.5-0.3c0.1-0.2,0.1-0.6,0.1-1.2s-0.1-1.2-0.3-1.8h-2.7c-1.1,0-1.6-0.6-1.6-1.8V21.3l4.9,0.1
	c0.1-0.4,0.2-0.9,0.2-1.5s-0.1-1.1-0.2-1.6L125.8,18.4z M158.9,18.2c-0.7,0-1.3,0.1-1.8,0.2l-4.7,16.4c-0.2,0-0.3-0.1-0.4-0.3
	c-0.5-2.3-1.1-4.2-1.6-5.8l-2.7-8.8c-0.3-1.2-1-1.8-2.2-1.8c-0.7,0-1.5,0.2-2.4,0.6l5.5,17.4c0.3,0.9,0.7,1.5,1.1,1.8
	c0.4,0.3,1.1,0.4,2.2,0.4c1,0,1.9-0.1,2.7-0.2c2.1-6.2,4.2-12.7,6.2-19.4l-0.1-0.2C160.2,18.3,159.6,18.2,158.9,18.2z M188.9,18.4
	v-5.9l-0.3-0.3H187c-0.8,0-1.4,0.2-1.7,0.6s-0.5,1.1-0.5,2v3.5l-3-0.1c-0.1,0.5-0.2,1-0.2,1.6c0,0.5,0.1,1,0.2,1.5h3v12.8
	c0,2.7,1.4,4.1,4.2,4.1c1.4,0,2.9-0.1,4.5-0.3c0.1-0.2,0.1-0.6,0.1-1.2s-0.1-1.2-0.3-1.8h-2.8c-1.1,0-1.6-0.6-1.6-1.8V21.3l4.9,0.1
	c0.1-0.4,0.2-0.9,0.2-1.5s-0.1-1.1-0.2-1.6L188.9,18.4z M137.1,18.2h-0.6c-0.8,0-1.6,0.1-2.5,0.2c-0.1,0.6-0.2,1.1-0.2,1.5
	s0.1,0.9,0.2,1.5h0.4c0.6,0,1.1,0.2,1.4,0.5c0.3,0.3,0.4,0.9,0.4,1.6v14.6c0.5,0.1,1.2,0.2,2.1,0.2c0.9,0,1.6-0.1,2.1-0.2V21.8
	c0-1.1-0.3-2-0.9-2.6C138.9,18.5,138.1,18.2,137.1,18.2z M212.1,23c-0.4-1.1-0.9-2-1.6-2.7c-0.7-0.8-1.5-1.4-2.5-1.8
	s-2.1-0.6-3.4-0.6c-1.3,0-2.4,0.3-3.5,0.8c-1,0.5-1.9,1.2-2.6,2.1c-0.7,0.9-1.2,2-1.6,3.3c-0.4,1.3-0.6,2.6-0.6,4.1s0.1,2.9,0.4,4.2
	c0.3,1.3,0.8,2.4,1.4,3.3c0.7,0.9,1.5,1.7,2.5,2.2s2.3,0.8,3.8,0.8c2.9,0,5.4-0.7,7.5-2.2c-0.2-1.1-0.7-2-1.3-2.6
	c-1,0.5-1.9,0.9-2.9,1.2c-0.9,0.2-1.8,0.4-2.6,0.4c-1.7,0-2.9-0.5-3.6-1.5c-0.7-1-1.1-2.4-1.2-4.2h11.8c0.1-0.5,0.2-1.1,0.2-1.6
	s0.1-1,0.1-1.6C212.6,25.1,212.4,24,212.1,23z M208.7,26.5h-8.1c0.2-3.8,1.5-5.6,4.1-5.6c1.4,0,2.4,0.5,3,1.4c0.7,0.9,1,2.2,1,3.7
	V26.5z"/>
<path class="st1" d="M29.8,24.4c-1.2-1.2-2.9-1.9-4.8-1.9c-3.9,0-7,3.1-7,7s3.1,7,7,7c1.8,0,3.5-0.7,4.8-1.9l12.7,12.7
	C38,51.7,31.8,54.5,25,54.5c-13.8,0-25-11.2-25-25s11.2-25,25-25c6.8,0,13,2.7,17.5,7.2L29.8,24.4z"/>
</svg>
